<?xml version="1.0" standalone="no"?>
<!DOCTYPE svg PUBLIC "-//W3C//DTD SVG 20010904//EN"
 "http://www.w3.org/TR/2001/REC-SVG-20010904/DTD/svg10.dtd">
<svg version="1.0" xmlns="http://www.w3.org/2000/svg"
 width="500.000000pt" height="500.000000pt" viewBox="0 0 500.000000 500.000000"
 preserveAspectRatio="xMidYMid meet">

<g transform="translate(0.000000,500.000000) scale(0.100000,-0.100000)"
fill="#000000" stroke="none">
<path d="M2410 4881 c-41 -4 -102 -15 -135 -25 -51 -16 -66 -17 -108 -6 -60
15 -166 5 -210 -20 -31 -17 -46 -21 -190 -55 -77 -18 -166 -58 -217 -97 -20
-15 -54 -35 -78 -46 -23 -10 -67 -46 -99 -82 -73 -79 -110 -149 -128 -241 -2
-9 -15 -28 -29 -42 -14 -14 -26 -32 -26 -40 0 -7 -19 -26 -42 -43 -23 -16
-104 -90 -179 -164 -133 -132 -138 -138 -196 -255 -56 -113 -72 -165 -114
-360 -15 -70 -16 -80 -5 -295 7 -130 13 -172 27 -200 11 -19 19 -53 19 -75 0
-22 7 -50 15 -61 8 -12 19 -51 25 -88 6 -37 17 -86 24 -109 8 -23 17 -55 21
-72 3 -16 16 -46 29 -65 12 -19 26 -51 30 -70 3 -19 21 -52 38 -74 29 -36 38
-71 27 -111 -5 -19 13 -85 23 -85 5 0 12 9 15 20 9 33 29 23 60 -28 42 -70 51
-101 52 -168 1 -33 5 -64 11 -70 5 -5 11 -32 12 -59 3 -42 0 -50 -14 -49 -10
1 -14 -4 -11 -12 3 -8 13 -14 23 -14 11 0 22 -5 25 -10 13 -21 16 -63 5 -70
-8 -5 11 -53 58 -146 39 -76 80 -162 91 -191 33 -83 138 -288 197 -384 88
-142 169 -245 278 -353 133 -131 171 -187 169 -243 -1 -24 2 -43 7 -43 5 0 12
-10 16 -22 3 -13 12 -30 19 -38 8 -8 29 -60 48 -115 l34 -100 494 -3 c272 -2
514 1 539 5 39 7 32 9 -60 13 -96 5 -103 6 -79 19 15 7 32 24 38 37 6 13 28
32 48 42 21 9 44 25 51 35 7 9 20 17 28 17 8 0 14 10 14 23 1 28 25 56 75 87
53 32 92 70 114 111 13 23 27 36 47 39 18 3 30 12 32 24 3 11 22 43 43 71 21
29 39 56 39 60 0 5 18 30 40 56 22 26 40 54 40 62 0 8 18 27 40 42 22 15 40
33 40 39 0 19 40 90 62 109 15 12 21 29 20 53 -2 44 14 87 29 78 9 -5 10 1 5
20 -4 15 -1 44 5 64 7 20 14 44 16 52 2 8 6 62 9 120 2 58 8 132 14 165 6 33
13 139 17 235 3 96 10 183 15 193 6 11 3 33 -7 62 -10 32 -14 79 -13 158 3
193 -9 289 -26 209 -11 -50 -35 -245 -31 -252 16 -26 32 -422 20 -496 -8 -45
-23 -115 -33 -156 -5 -20 -8 -39 -5 -41 2 -3 -6 -40 -18 -83 -11 -44 -23 -88
-26 -99 -2 -12 -18 -36 -34 -55 -16 -18 -37 -50 -47 -69 -33 -71 -125 -143
-175 -137 -27 3 -77 54 -77 79 0 9 -13 25 -29 36 -20 15 -34 38 -44 74 -26 87
-28 106 -14 135 21 41 22 229 3 267 -9 17 -16 36 -16 43 0 6 -10 13 -22 14
-13 0 -29 2 -36 2 -8 1 -19 8 -25 17 -14 19 -36 3 -29 -21 3 -8 -5 -3 -17 13
-13 16 -32 27 -46 27 -13 0 -31 10 -39 21 -15 21 -54 20 -41 -1 9 -15 -83 -11
-130 5 -22 8 -46 15 -53 15 -21 0 -102 40 -102 50 0 5 5 12 10 15 25 15 5 25
-50 25 -64 0 -103 -13 -137 -45 -48 -46 -58 -50 -128 -53 -65 -4 -74 -2 -102
22 -29 24 -37 26 -122 24 -50 -2 -91 -5 -91 -8 0 -12 17 -28 45 -41 22 -11 29
-21 27 -38 -2 -21 0 -22 15 -10 15 11 16 11 6 -1 -14 -16 -21 -17 -118 -34
-38 -6 -79 -16 -90 -22 -11 -6 -37 -17 -57 -23 -21 -7 -38 -16 -38 -20 0 -5
-20 -14 -45 -21 -25 -7 -45 -17 -45 -22 0 -4 -11 -13 -24 -20 -18 -8 -28 -24
-36 -59 -16 -67 4 -207 37 -256 13 -19 23 -43 23 -53 0 -11 3 -20 8 -20 11 0
9 -298 -3 -308 -22 -21 -73 -22 -98 -2 -14 11 -29 20 -34 20 -9 0 -123 118
-123 128 0 3 -11 20 -25 38 -14 18 -25 36 -25 39 0 4 -9 19 -19 34 -11 15 -23
40 -26 57 -4 16 -13 43 -20 59 -38 85 -45 105 -45 133 0 16 -7 64 -16 106 -14
71 -14 77 2 93 22 23 34 23 58 4 18 -15 18 -15 5 7 -8 12 -19 22 -26 22 -7 0
-13 5 -13 10 0 6 6 10 14 10 15 0 19 47 4 56 -12 8 -29 47 -42 99 -10 41 -39
95 -49 95 -5 0 -7 7 -3 15 3 8 -2 19 -11 23 -12 7 -16 24 -14 73 0 35 -4 89
-9 119 -12 62 -20 118 -24 170 -4 47 -26 130 -41 155 -16 25 -28 76 -18 73 5
-2 9 2 10 7 1 6 -5 9 -13 7 -17 -4 -19 15 -2 20 7 3 21 -6 31 -19 10 -13 23
-21 28 -18 5 4 9 -1 9 -10 0 -11 5 -15 15 -11 18 7 45 -19 45 -44 0 -10 5 -22
10 -25 6 -4 10 -16 8 -28 -2 -15 3 -23 17 -25 30 -5 45 -31 38 -63 -5 -28 9
-59 28 -59 5 0 18 9 29 20 18 18 42 27 76 29 7 1 14 7 17 15 4 11 -1 13 -19
10 -20 -4 -25 -1 -22 13 4 20 54 27 92 14 12 -4 53 -2 91 4 61 9 66 12 41 18
-15 5 -31 6 -34 3 -7 -8 -63 55 -57 64 2 4 27 10 54 13 28 3 65 14 83 23 26
13 49 16 121 11 76 -5 96 -3 150 17 89 33 108 20 67 -46 -30 -49 -26 -71 14
-84 27 -8 33 -8 29 3 -3 7 2 13 12 13 9 0 13 -4 10 -10 -11 -17 25 -11 44 7
53 52 68 110 50 203 -12 67 -47 140 -66 140 -8 0 -24 6 -36 14 -12 8 -44 17
-72 21 -79 11 -112 34 -94 66 22 43 -18 62 -165 79 -62 7 -93 6 -102 -1 -7 -6
-52 -10 -101 -10 -78 1 -89 3 -104 23 -16 21 -19 21 -58 8 -23 -7 -41 -16 -41
-19 0 -6 -25 -18 -102 -46 -27 -9 -48 -21 -48 -27 0 -10 -25 -38 -34 -38 -3 0
-6 6 -6 13 0 8 -7 29 -16 47 -14 27 -14 34 -3 41 12 8 12 10 -1 18 -8 5 -17 8
-21 5 -4 -2 -10 0 -14 6 -3 5 -3 10 2 10 4 0 8 11 8 24 0 13 -3 22 -6 20 -11
-7 -18 67 -9 92 7 17 4 47 -7 97 -11 45 -16 109 -15 170 1 67 -2 96 -10 91 -7
-5 -9 19 -6 76 3 70 6 85 25 100 12 10 19 20 16 24 -4 3 6 6 21 6 17 0 25 4
20 11 -4 7 1 7 16 -1 21 -11 22 -11 18 14 -4 21 2 34 23 56 16 16 29 33 29 38
0 5 9 17 20 27 11 10 17 22 13 28 -4 6 -1 7 6 3 7 -5 17 -1 24 9 7 9 72 33
152 56 77 22 150 47 162 55 27 17 170 22 261 10 49 -7 66 -6 72 4 5 8 39 13
110 14 l102 1 31 35 c34 38 109 80 145 80 12 0 22 4 22 8 0 20 60 42 99 36 30
-5 44 -2 56 10 9 9 30 16 46 16 17 0 32 6 35 15 4 8 11 12 16 9 6 -4 14 -1 18
6 6 9 10 9 21 -2 10 -12 38 -14 135 -10 98 3 127 1 152 -12 17 -9 55 -19 84
-22 56 -6 168 -52 168 -69 0 -5 16 -28 36 -50 87 -98 121 -157 137 -240 9 -43
14 -82 11 -87 -3 -4 3 -22 13 -40 9 -18 17 -36 18 -40 0 -3 3 -10 8 -14 4 -4
7 -14 7 -23 0 -33 44 -157 65 -181 56 -66 105 -173 120 -265 4 -22 18 -87 32
-145 14 -58 29 -121 33 -140 4 -19 15 -60 22 -90 8 -30 16 -71 17 -89 1 -19 4
-37 6 -40 14 -14 20 24 23 142 4 151 16 189 84 253 l39 37 -6 76 c-3 42 -10
123 -15 181 -6 58 -8 134 -6 170 5 85 -34 279 -60 301 -8 6 -14 17 -14 23 0 6
-12 34 -26 61 -15 30 -27 70 -28 100 -2 28 -8 60 -14 72 -7 12 -12 29 -12 37
0 8 -8 23 -19 33 -20 20 -33 62 -31 107 0 16 -8 47 -19 70 -11 22 -22 56 -26
75 -4 20 -26 54 -50 80 -23 25 -46 57 -50 71 -12 41 -213 231 -282 268 -33 17
-70 32 -82 32 -38 0 -156 43 -182 67 -25 23 -96 47 -172 60 -59 9 -58 26 2 19
28 -3 51 -2 51 3 0 13 -26 21 -73 21 -48 1 -168 30 -188 47 -19 15 -110 21
-199 14z m835 -301 c3 -5 1 -10 -4 -10 -6 0 -11 5 -11 10 0 6 2 10 4 10 3 0 8
-4 11 -10z m52 -16 c-3 -3 -12 -4 -19 -1 -8 3 -5 6 6 6 11 1 17 -2 13 -5z
m-1477 -2009 c14 -17 -1 -28 -90 -59 -119 -42 -184 -69 -201 -83 -8 -7 -20
-13 -25 -13 -12 -1 -55 -39 -78 -70 l-18 -25 6 27 c3 15 2 30 -4 33 -18 11
-10 23 13 19 12 -2 16 -1 9 2 -10 5 -10 10 4 25 9 10 21 16 26 13 6 -4 7 2 3
15 -4 15 -2 21 9 21 9 0 23 11 32 25 9 14 23 25 30 25 8 0 22 4 32 9 9 5 47
14 84 19 37 6 80 17 95 24 31 15 57 13 73 -7z m310 -114 c0 -6 -5 -13 -10 -16
-14 -9 -52 4 -45 16 8 12 55 12 55 0z m-340 -11 c0 -5 -7 -10 -15 -10 -8 0
-15 5 -15 10 0 6 7 10 15 10 8 0 15 -4 15 -10z m155 -9 c6 -11 -32 -41 -52
-41 -7 0 -13 11 -13 25 0 21 5 25 29 25 17 0 32 -4 36 -9z m605 -761 c0 -5 -5
-10 -11 -10 -5 0 -7 5 -4 10 3 6 8 10 11 10 2 0 4 -4 4 -10z m-40 -290 c0 -13
-7 -20 -19 -20 -22 0 -35 15 -26 30 12 19 45 11 45 -10z m270 -59 c12 -23 13
-71 2 -87 -11 -17 -48 -34 -72 -34 -12 0 -35 -10 -52 -21 -25 -18 -38 -21 -81
-15 -29 3 -78 0 -110 -6 -52 -11 -62 -10 -89 5 -16 9 -47 17 -69 17 -26 0 -46
7 -59 20 -11 11 -27 20 -36 20 -9 0 -14 7 -12 18 2 12 20 21 58 29 30 7 74 17
98 23 23 5 69 10 102 10 39 0 70 6 86 16 18 12 37 15 73 10 27 -3 59 -2 72 3
40 16 77 13 89 -8z m372 -54 c21 -23 25 -33 17 -44 -8 -9 -8 -21 1 -42 6 -17
9 -35 5 -41 -4 -6 -8 -40 -10 -74 -4 -82 -12 -105 -41 -116 -21 -9 -24 -15
-24 -66 l0 -56 -29 5 c-26 6 -32 2 -45 -25 -9 -17 -16 -44 -16 -60 0 -22 -7
-31 -27 -40 -16 -7 -39 -22 -53 -35 -15 -13 -38 -24 -53 -25 -20 -2 -28 -9
-32 -29 -10 -44 -29 -54 -74 -39 -33 11 -42 10 -65 -5 -16 -11 -31 -14 -39 -9
-6 5 -21 9 -32 8 -11 -1 -32 -2 -47 -3 -20 -1 -26 -5 -22 -16 4 -9 0 -15 -9
-15 -8 0 -20 -7 -28 -16 -8 -10 -21 -13 -38 -8 -14 3 -37 7 -51 9 -14 1 -32 3
-41 3 -9 1 -19 10 -22 21 -3 14 -11 17 -32 13 -18 -3 -32 0 -39 10 -9 11 -127
51 -157 53 -15 1 -79 51 -79 63 0 6 -4 12 -9 12 -5 0 -26 16 -47 35 -21 19
-48 35 -62 35 -48 0 -73 54 -66 146 3 37 9 73 14 79 7 8 5 22 -4 41 -13 26
-20 72 -17 116 1 9 15 24 33 32 28 15 34 15 55 1 12 -9 23 -19 23 -23 0 -12
124 -138 149 -152 14 -7 67 -23 119 -35 51 -13 96 -26 99 -29 17 -17 -28 -22
-102 -13 -60 8 -98 -11 -75 -38 7 -8 16 -13 20 -10 5 3 11 1 15 -4 3 -6 11 -8
18 -5 7 2 23 -10 36 -27 20 -27 28 -30 54 -25 17 3 39 14 49 23 15 14 22 14
42 3 15 -8 35 -10 53 -5 15 4 65 6 110 6 57 -1 92 3 112 14 17 8 41 15 54 15
28 0 89 43 99 70 7 20 -11 42 -34 39 -29 -4 -36 2 -40 34 -4 35 10 57 36 57
20 0 46 11 46 20 0 17 -39 50 -59 50 -24 0 -26 6 -8 43 15 33 47 41 130 32 61
-7 63 -6 75 19 6 14 26 35 44 46 42 26 84 18 120 -23z m-388 -123 c3 -8 2 -23
-3 -32 -5 -9 -8 -29 -6 -44 2 -19 -1 -28 -11 -28 -8 0 -14 8 -14 17 0 9 -3 14
-6 11 -3 -4 -5 -9 -4 -13 1 -6 -39 -45 -46 -45 -2 0 0 7 3 17 4 11 3 14 -6 9
-6 -4 -19 -2 -28 5 -14 12 -15 10 -9 -18 7 -29 5 -32 -23 -38 -17 -4 -33 -11
-36 -16 -16 -25 -105 0 -105 30 0 6 -6 11 -14 11 -8 0 -18 9 -21 20 -4 14 -15
20 -34 20 -17 0 -28 5 -28 14 0 8 6 12 14 9 7 -3 13 1 13 9 0 20 67 42 116 39
23 -1 45 2 49 8 3 6 10 9 14 6 5 -2 21 -1 37 4 16 4 38 5 49 1 11 -4 33 -1 50
6 39 17 42 17 49 -2z m-379 -264 c3 -5 2 -10 -4 -10 -5 0 -13 5 -16 10 -3 6
-2 10 4 10 5 0 13 -4 16 -10z"/>
<path d="M3129 2979 c-14 -14 -31 -20 -57 -18 -57 3 -130 -11 -136 -28 -3 -8
-10 -12 -15 -8 -5 3 -12 2 -15 -3 -3 -5 -31 -14 -63 -22 -32 -7 -76 -20 -98
-30 -22 -9 -64 -25 -94 -35 -73 -24 -101 -54 -91 -100 8 -35 -9 -75 -43 -104
-20 -16 -23 -76 -4 -88 6 -4 41 -10 77 -13 l65 -5 -3 -32 c-3 -28 0 -32 30
-41 52 -16 107 -22 113 -12 3 5 12 7 19 4 8 -3 17 -1 21 5 3 6 15 11 26 11 10
0 24 9 31 21 15 24 58 45 108 53 19 3 46 8 60 11 64 15 143 25 185 23 67 -2
75 13 28 56 -49 46 -78 54 -246 65 -137 8 -164 14 -138 30 7 5 11 14 7 20 -7
11 8 16 74 25 83 12 147 25 173 35 17 7 51 8 85 4 44 -5 63 -13 86 -36 31 -30
77 -39 111 -20 14 8 12 16 -20 61 -19 28 -35 58 -35 67 0 25 -35 52 -78 59
-25 4 -45 13 -51 25 -20 37 -83 49 -112 20z m-179 -369 c0 -5 -7 -10 -15 -10
-8 0 -15 5 -15 10 0 6 7 10 15 10 8 0 15 -4 15 -10z m-112 -68 c3 -18 -1 -22
-22 -22 -31 0 -42 16 -25 36 17 21 43 13 47 -14z"/>
<path d="M2795 2411 c-16 -4 -30 -11 -30 -16 0 -13 195 -18 226 -6 21 8 17 10
-26 12 -70 3 -114 7 -128 11 -7 2 -25 2 -42 -1z"/>
<path d="M2132 1998 c-17 -17 -15 -38 4 -38 8 0 12 5 9 10 -3 6 5 10 19 10 20
0 24 4 19 17 -4 11 -8 13 -11 5 -3 -9 -8 -10 -16 -3 -9 7 -16 7 -24 -1z"/>
<path d="M2186 1962 c-4 -7 -12 -9 -18 -6 -6 4 -4 -3 5 -16 14 -20 14 -25 1
-45 -15 -23 -7 -40 12 -27 17 12 23 37 15 73 -4 22 -10 29 -15 21z"/>
<path d="M2110 1929 c0 -5 5 -7 10 -4 6 3 10 8 10 11 0 2 -4 4 -10 4 -5 0 -10
-5 -10 -11z"/>
<path d="M1080 1685 c0 -8 4 -15 10 -15 5 0 7 7 4 15 -4 8 -8 15 -10 15 -2 0
-4 -7 -4 -15z"/>
<path d="M1470 1364 c0 -8 5 -12 10 -9 6 4 8 11 5 16 -9 14 -15 11 -15 -7z"/>
<path d="M3880 1105 c0 -4 13 -23 29 -43 41 -52 97 -167 116 -237 30 -115 40
-315 26 -532 -7 -110 -13 -208 -14 -219 -2 -17 6 -19 63 -22 36 -2 155 1 265
7 110 6 298 13 418 17 l217 6 0 154 0 153 -42 11 c-24 7 -104 31 -178 55 -74
24 -149 46 -166 50 -18 3 -52 19 -78 35 -78 50 -334 270 -481 414 -129 127
-175 166 -175 151z"/>
<path d="M3768 968 c0 -18 -1 -65 -2 -105 -1 -63 1 -70 14 -58 8 8 24 41 34
75 23 71 15 113 -22 118 -19 3 -22 -2 -24 -30z"/>
<path d="M1719 89 c-74 -44 -136 -83 -138 -85 -2 -2 71 -4 163 -4 l168 0 -6
23 c-3 12 -12 50 -18 85 -7 34 -18 62 -24 62 -7 0 -72 -36 -145 -81z"/>
<path d="M3598 33 c12 -2 32 -2 45 0 12 2 2 4 -23 4 -25 0 -35 -2 -22 -4z"/>
<path d="M3277 19 c7 -7 46 -7 124 -1 l114 9 -124 2 c-88 1 -122 -2 -114 -10z"/>
<path d="M3128 13 c12 -2 32 -2 45 0 12 2 2 4 -23 4 -25 0 -35 -2 -22 -4z"/>
</g>
</svg>
